<?xml version="1.0" standalone="no"?><!DOCTYPE svg PUBLIC "-//W3C//DTD SVG 1.1//EN" "http://www.w3.org/Graphics/SVG/1.1/DTD/svg11.dtd"><svg t="1587090622422" class="icon" viewBox="0 0 1024 1024" version="1.1" xmlns="http://www.w3.org/2000/svg" p-id="3682" xmlns:xlink="http://www.w3.org/1999/xlink" width="48" height="48"><defs><style type="text/css"></style></defs><path d="M144.980999 927.265842c-0.720408 0-1.468444-0.038886-2.273786-0.11768-0.344854 0.021489-0.690732 0.038886-1.044796 0.038886-12.95608 0-23.496134-10.543124-23.496134-23.50125 0-105.194854 40.96704-204.094328 115.353215-278.482549 45.085848-45.088918 100.295264-78.57559 160.399153-97.414657-33.668821-19.294438-62.21804-46.553269-83.122139-79.501682-24.13877-38.045501-36.897352-82.026178-36.897352-127.187751 0-131.287115 106.812701-238.09777 238.10391-238.09777 131.287115 0 238.095723 106.810654 238.095723 238.09777 0 45.162596-12.757558 89.143273-36.893258 127.187751-20.904099 32.949436-49.451272 60.207243-83.120093 79.502705 60.099796 18.833951 115.308189 52.320623 160.397107 97.414657 74.386174 74.388221 115.353215 173.289742 115.352191 278.482549 0 11.202133-7.961322 20.88568-18.939351 23.045879-1.658779 0.355087-3.327792 0.533143-4.962012 0.533143L144.980999 927.265842zM858.053504 880.273575l-0.282433-4.50664 0.419556 0c-14.300704-179.574888-165.182087-319.356468-346.189603-319.356468-181.007517 0-331.888899 139.78158-346.18858 319.356468l0.411369 0-0.279363 4.50664L858.053504 880.273575zM512.001023 129.99775c-8.611122 0-17.344017 0.595564-25.956162 1.77032-94.2772 12.788258-165.368328 94.282317-165.368328 189.564403 0 105.496729 85.827761 191.32449 191.32449 191.32449s191.32449-85.828784 191.32449-191.32449c0-95.160313-70.988798-176.640046-165.124781-189.530634C529.502629 130.60457 520.688893 129.99775 512.001023 129.99775z" p-id="3683"></path></svg>